<?xml version="1.0" standalone="no"?>
<!DOCTYPE svg PUBLIC "-//W3C//DTD SVG 20010904//EN"
 "http://www.w3.org/TR/2001/REC-SVG-20010904/DTD/svg10.dtd">
<svg version="1.0" xmlns="http://www.w3.org/2000/svg"
 width="500.000000pt" height="500.000000pt" viewBox="0 0 500.000000 500.000000"
 preserveAspectRatio="xMidYMid meet">
<metadata>
Created by potrace 1.11, written by Peter Selinger 2001-2013
</metadata>
<g transform="translate(0.000000,500.000000) scale(0.100000,-0.100000)"
fill="#000000" stroke="none">
<path d="M2400 4964 c-47 -5 -353 -54 -357 -58 -2 -2 4 -24 13 -50 21 -62 15
-166 -14 -222 -44 -86 -138 -141 -311 -184 -46 -12 -106 -32 -132 -46 -40 -20
-50 -31 -58 -61 -18 -70 -24 -133 -12 -133 25 0 180 63 258 105 47 26 92 44
100 40 27 -10 10 -88 -31 -150 -60 -91 -139 -136 -278 -160 -29 -4 -38 -11
-38 -25 0 -22 38 -129 53 -147 25 -32 166 2 228 55 67 58 97 144 64 188 -21
28 -19 32 24 45 93 28 151 -15 151 -112 0 -124 -73 -236 -190 -291 -71 -33
-197 -61 -280 -61 -65 -1 -124 18 -294 94 -46 20 -47 21 -31 39 22 24 99 54
120 47 19 -8 19 -8 -5 53 -11 28 -20 60 -20 70 0 17 -7 20 -49 20 -82 0 -86
39 -12 101 35 29 42 42 52 94 6 33 17 72 25 87 19 36 18 41 -7 28 -38 -21 -99
-82 -170 -172 -39 -49 -84 -95 -100 -103 -35 -19 -79 -19 -103 -2 -17 12 -17
18 -6 53 26 83 84 170 169 255 79 79 98 92 236 161 83 41 221 108 308 148 166
77 237 127 255 180 10 27 9 30 -9 30 -69 0 -406 -159 -570 -268 -200 -135
-431 -345 -550 -501 -53 -70 -54 -71 -57 -41 -8 76 -42 -1 -42 -94 1 -124 71
-210 300 -367 82 -55 168 -120 192 -143 94 -89 143 -192 142 -291 -1 -86 -35
-147 -126 -227 -134 -117 -209 -192 -214 -214 -17 -66 62 -112 206 -121 146
-9 241 16 413 109 35 19 39 19 62 4 53 -35 16 -141 -74 -213 -119 -95 -238
-133 -412 -133 -163 0 -237 30 -300 123 -42 62 -57 77 -75 77 -25 0 -26 -25
-3 -85 32 -85 91 -144 202 -201 156 -79 227 -143 227 -204 0 -37 -37 -97 -69
-110 -79 -32 -182 19 -327 164 -177 178 -264 366 -309 668 -28 192 3 529 68
739 21 66 23 83 14 128 -6 28 -14 51 -18 51 -9 0 -51 -127 -78 -235 -36 -144
-52 -267 -58 -451 -10 -295 18 -439 123 -644 99 -195 225 -337 417 -473 l94
-67 -10 -58 c-13 -80 4 -154 55 -238 56 -92 78 -154 78 -215 0 -30 8 -64 19
-87 22 -40 107 -119 158 -145 64 -33 107 -13 49 23 -42 25 -131 127 -146 164
-5 15 -10 46 -10 70 0 25 -9 61 -23 87 -13 24 -47 89 -76 144 -53 98 -53 101
-49 170 7 107 41 145 130 145 110 0 203 -98 243 -258 8 -31 19 -129 25 -217
15 -244 54 -446 107 -555 20 -40 71 -100 192 -224 279 -283 472 -424 759 -551
95 -42 190 -79 212 -82 46 -6 89 18 173 96 55 51 230 247 294 328 63 81 167
294 213 439 43 135 55 163 95 228 30 50 48 150 40 224 -4 37 -1 84 9 132 20
94 20 153 1 190 -22 42 -5 65 73 100 320 147 597 514 726 964 26 91 51 224 43
233 -3 3 -18 -15 -33 -39 -33 -51 -46 -63 -102 -89 -51 -24 -118 -27 -139 -7
-13 14 -11 18 20 37 54 33 61 61 37 156 -11 44 -20 91 -20 104 0 65 76 157
150 183 l32 11 -7 66 c-18 182 -78 376 -173 563 -136 269 -222 374 -447 551
-77 60 -141 118 -143 128 -4 23 1 23 -79 -2 -77 -25 -171 -22 -290 9 l-73 18
0 -77 0 -77 142 -22 c107 -17 160 -21 220 -15 77 6 78 6 78 -17 0 -34 -34 -84
-77 -112 -59 -39 -112 -42 -230 -12 -56 14 -108 26 -116 26 -19 0 -30 -129
-13 -146 18 -17 244 -115 300 -130 126 -34 232 -9 313 71 42 43 55 65 73 124
13 40 28 71 35 71 21 0 83 -76 94 -117 15 -53 14 -90 -5 -153 -30 -102 -170
-209 -312 -239 -77 -16 -109 -14 -198 13 -106 32 -166 57 -306 133 -125 67
-231 107 -313 118 -98 14 -120 52 -62 110 33 33 111 59 153 50 10 -2 36 -6 57
-9 l38 -5 -6 32 c-4 18 -11 49 -16 70 l-10 37 -57 0 c-31 0 -63 4 -70 9 -27
16 -8 46 46 71 l52 25 -6 46 c-5 41 -2 50 30 92 20 26 36 50 36 53 0 4 -55 5
-122 3 -122 -4 -123 -4 -126 19 -5 33 60 92 128 117 71 25 173 24 304 -4 112
-24 113 -24 101 -12 -26 23 -379 120 -535 146 -93 16 -371 27 -460 19z m343
-116 c94 -73 115 -247 42 -356 -34 -50 -77 -77 -206 -128 -65 -26 -128 -58
-140 -70 -21 -22 -21 -24 -5 -49 9 -14 49 -49 89 -79 100 -74 143 -124 161
-188 8 -29 19 -126 24 -215 8 -153 11 -166 41 -227 38 -77 87 -124 180 -171
38 -19 77 -45 85 -57 25 -36 20 -83 -13 -120 -25 -28 -35 -32 -92 -36 -119 -7
-239 64 -319 188 -56 87 -63 124 -64 350 -1 243 3 232 -128 367 -58 61 -90
103 -94 123 -11 51 -24 44 -24 -12 0 -31 15 -104 35 -175 39 -134 43 -202 19
-263 -27 -68 -84 -81 -127 -30 -55 65 -77 185 -84 465 l-6 231 -60 11 c-62 12
-110 39 -115 64 -2 10 16 21 49 33 78 28 145 79 241 180 129 138 258 198 409
193 54 -2 73 -7 102 -29z m1417 -914 c0 -39 -8 -87 -20 -121 l-20 -57 41 -96
c58 -135 82 -251 76 -370 -5 -113 -33 -199 -79 -247 -56 -58 -64 -49 -71 80
-4 86 -13 137 -37 217 -17 57 -35 110 -38 116 -5 7 -50 -7 -140 -45 l-133 -55
8 -46 c12 -67 10 -227 -3 -240 -8 -8 -25 1 -61 29 -75 60 -100 103 -118 201
-9 47 -36 170 -62 273 -32 134 -42 192 -35 199 19 19 96 -19 141 -67 48 -52
73 -100 96 -182 10 -35 23 -63 29 -63 20 0 150 77 191 113 l39 34 -27 64 c-39
92 -37 101 32 148 62 42 109 103 137 178 l18 46 18 -23 c13 -16 18 -39 18 -86z
m-1015 52 c74 -34 115 -85 115 -142 0 -58 -23 -102 -57 -110 -21 -6 -42 1 -87
26 -81 44 -156 45 -156 1 0 -34 50 -72 173 -131 100 -48 133 -69 176 -114 78
-84 96 -130 96 -251 0 -87 -3 -107 -27 -157 -31 -67 -88 -131 -158 -179 -27
-19 -50 -36 -49 -39 0 -3 25 -25 56 -50 134 -109 203 -233 259 -470 20 -83 34
-154 30 -157 -8 -8 -69 10 -218 68 -70 27 -139 49 -152 49 -14 0 -34 9 -44 20
-12 13 -25 18 -35 14 -10 -4 -17 -1 -17 6 0 10 -4 9 -16 0 -22 -19 -37 -49
-44 -90 l-6 -35 -92 1 c-72 1 -113 8 -182 30 l-89 28 -11 51 c-11 51 -37 101
-47 91 -4 -3 -15 1 -25 11 -10 9 -18 11 -18 5 0 -7 -11 -9 -30 -5 -23 4 -30 2
-30 -11 0 -18 0 -18 -180 -50 -74 -14 -153 -29 -175 -35 -22 -6 -73 -11 -113
-11 -83 0 -93 -4 -180 -73 -35 -27 -65 -47 -67 -45 -9 9 65 266 99 347 42 98
43 105 14 91 -13 -6 1 11 30 38 53 49 64 66 37 56 -30 -12 -14 4 40 40 31 20
53 41 50 46 -7 12 71 77 129 107 27 13 80 31 119 39 73 16 125 10 221 -22 39
-13 40 -13 16 3 -14 9 -50 42 -82 74 -85 85 -151 234 -173 390 -9 64 9 122 54
169 32 34 44 40 79 40 33 0 45 -6 66 -31 30 -35 30 -34 26 -197 -2 -120 -2
-124 29 -186 55 -112 165 -195 292 -222 125 -26 234 -1 334 76 58 45 105 122
105 172 0 37 -25 96 -53 127 -12 13 -76 49 -142 81 -182 88 -250 159 -262 273
-6 60 14 118 63 182 63 83 204 111 309 61z m-1041 -228 c24 -39 28 -85 12
-141 -27 -94 -89 -132 -271 -167 -60 -11 -121 -23 -134 -26 -22 -5 -23 -8 -17
-53 3 -27 15 -73 25 -102 18 -52 19 -54 52 -51 55 5 228 95 290 151 54 48 57
50 73 32 37 -41 47 -144 20 -191 -36 -59 -133 -102 -279 -122 -44 -5 -81 -12
-83 -13 -8 -7 35 -75 79 -123 60 -66 67 -106 26 -149 -56 -61 -184 11 -259
145 l-30 52 -35 -22 c-35 -21 -36 -21 -49 -3 -22 30 -17 88 12 130 24 35 25
42 14 83 -6 25 -14 83 -17 128 l-6 82 -46 7 c-75 10 -166 60 -206 112 -56 73
-65 131 -27 176 24 27 56 20 117 -28 80 -61 110 -70 245 -69 98 0 127 4 195
28 81 27 185 84 240 130 37 31 41 31 59 4z m1455 -623 c11 -14 23 -40 27 -58
19 -90 39 -100 217 -117 115 -10 212 -32 261 -57 48 -25 126 -104 151 -153
157 -310 -182 -704 -491 -570 -88 38 -112 108 -114 325 -2 151 -21 265 -49
284 -58 41 -106 90 -122 126 -36 78 -19 180 36 223 36 29 59 28 84 -3z m-1269
-876 c152 -11 271 -27 279 -35 3 -4 -118 -5 -269 -3 l-275 4 -5 -55 c-6 -67
-15 -57 -25 27 -11 95 -43 88 295 62z m817 -15 c-3 -3 -12 -4 -19 -1 -8 3 -5
6 6 6 11 1 17 -2 13 -5z m-379 -64 c13 -126 -84 -278 -218 -344 l-35 -17 35
27 c63 50 110 107 141 169 35 72 49 166 28 191 -11 14 -9 15 17 12 25 -3 29
-8 32 -38z m732 -37 c118 -14 219 -29 223 -33 5 -4 6 -18 2 -30 -6 -18 -9 -19
-18 -7 -11 13 -191 44 -367 63 -92 10 -170 27 -170 36 0 11 -1 11 330 -29z
m-543 4 c7 -7 22 -48 33 -92 48 -192 145 -319 280 -369 92 -34 157 -42 234
-27 33 6 62 9 64 6 4 -4 -12 -290 -33 -569 -10 -128 -79 -291 -167 -391 l-43
-49 -5 150 c-5 142 -7 152 -37 209 -39 76 -202 285 -250 322 -30 23 -50 29
-117 35 -45 4 -102 10 -128 14 -59 8 -126 -21 -289 -128 -189 -124 -241 -196
-280 -388 -11 -58 -22 -106 -24 -108 -17 -18 -342 213 -394 280 -54 68 -58 89
-80 413 -19 265 -18 295 13 425 9 36 16 86 16 112 0 47 0 48 72 98 75 53 88
58 88 37 0 -7 13 -23 29 -35 23 -17 32 -35 41 -79 24 -116 89 -216 163 -255
83 -42 296 -35 406 13 98 43 188 146 251 289 47 104 56 113 105 105 22 -3 46
-11 52 -18z m858 -89 c-4 -18 -13 -40 -20 -48 -8 -8 -26 -49 -40 -90 -30 -84
-87 -174 -125 -199 -20 -13 -18 -7 12 30 44 54 95 160 104 219 4 25 15 48 30
59 13 10 24 28 24 40 0 12 5 21 11 21 7 0 8 -12 4 -32z m-140 -408 c20 -38 19
-84 -2 -123 l-18 -32 -6 60 c-3 33 -9 68 -13 78 -9 20 -1 47 13 47 6 0 17 -13
26 -30z m-76 -292 c-14 -49 -19 -45 -19 13 1 48 2 52 14 36 10 -13 12 -27 5
-49z m67 -81 c-3 -6 -7 -24 -10 -39 -11 -49 -29 -33 -21 18 10 68 17 82 26 56
5 -12 7 -28 5 -35z m-825 -72 c21 -11 43 -14 77 -9 45 6 50 4 129 -53 151
-108 177 -143 107 -143 -21 0 -79 -13 -131 -30 -51 -16 -106 -30 -121 -30 -55
0 -160 31 -252 75 -94 44 -192 75 -238 75 -44 0 -11 19 96 54 235 78 283 86
333 61z"/>
<path d="M2501 4679 c-103 -41 -226 -197 -205 -261 8 -25 20 -23 65 12 21 17
82 51 136 76 54 26 106 53 116 62 25 22 24 98 -2 112 -24 12 -78 12 -110 -1z"/>
<path d="M3746 2629 c3 -68 9 -164 13 -214 l6 -90 57 -3 c99 -5 182 58 213
162 19 63 19 97 0 144 -33 76 -88 106 -227 119 l-68 6 6 -124z"/>
<path d="M3000 1661 c0 -67 -22 -113 -72 -152 -66 -53 -43 -86 60 -88 44 -1
82 24 82 54 0 18 -58 226 -65 233 -3 3 -5 -18 -5 -47z"/>
<path d="M2695 1549 c-37 -33 -45 -66 -19 -76 9 -3 40 0 70 6 60 14 82 38 65
70 -22 41 -69 41 -116 0z"/>
<path d="M2546 1529 c-4 -25 -4 -53 0 -63 7 -19 43 -36 75 -36 27 0 23 12 -11
32 -21 12 -33 30 -43 65 l-14 48 -7 -46z"/>
<path d="M2550 1113 c-110 -7 -87 -20 45 -27 99 -5 135 -11 168 -27 33 -17 51
-20 96 -15 33 3 94 0 145 -9 138 -23 123 -6 -33 37 -49 13 -89 18 -117 14 -31
-4 -55 0 -86 14 -43 20 -67 21 -218 13z"/>
<path d="M797 3422 c-31 -34 -57 -213 -57 -392 0 -229 21 -267 96 -171 22 27
78 93 126 145 95 106 125 163 114 220 -23 121 -221 262 -279 198z"/>
<path d="M1236 1829 c-10 -15 -16 -44 -16 -77 0 -47 4 -58 32 -85 33 -33 49
-26 28 13 -12 22 3 90 20 90 13 0 90 -137 90 -161 0 -12 -13 -43 -29 -68 -22
-36 -28 -54 -24 -80 l6 -35 11 34 c16 47 36 51 36 6 0 -39 26 -62 60 -51 18 6
20 16 20 80 0 58 4 76 16 83 24 14 11 66 -35 143 -49 82 -96 120 -154 126 -38
5 -47 2 -61 -18z"/>
</g>
</svg>
