<svg viewBox="0 0 14 17" xmlns="http://www.w3.org/2000/svg">
  <path d="M13.0264 6.54608C13.0081 6.6591 12.9921 6.77262 12.971 6.88514C12.9076 7.22256 12.7887 7.54236 12.6653 7.86169C12.4372 8.45165 12.1247 8.99097 11.7023 9.46109C11.4005 9.79676 11.0598 10.0893 10.6607 10.3057C10.5686 10.3556 10.4684 10.3908 10.3722 10.4331C10.3618 10.4371 10.3523 10.4432 10.3443 10.451C10.3033 10.4966 10.2632 10.5432 10.2223 10.5902C10.2237 10.5945 10.2257 10.5986 10.228 10.6025C10.3538 10.763 10.3755 10.9387 10.3254 11.1349C10.2736 11.3371 10.2301 11.5432 10.2552 11.7549C10.2747 11.9149 10.2599 12.0722 10.2235 12.2278C10.1916 12.3641 10.1279 12.4909 10.0375 12.5978C9.97911 12.668 9.96196 12.7561 9.93657 12.8419C9.87289 13.0573 9.80383 13.2711 9.72939 13.4833C9.65531 13.6945 9.54939 13.8915 9.44172 14.0869C9.40123 14.1605 9.3688 14.2386 9.33046 14.3136C9.2289 14.5117 9.0855 14.6798 8.94103 14.8465C8.76172 15.0539 8.58338 15.2624 8.39422 15.4605C8.23339 15.6289 8.06994 15.7952 7.87718 15.9314C7.76843 16.0083 7.6592 16.0197 7.54317 15.9879C7.44387 15.9607 7.34847 15.9161 7.25402 15.8748C7.03274 15.7786 6.81078 15.6835 6.59263 15.5805C6.4466 15.5116 6.29978 15.4399 6.16427 15.3522C5.69232 15.0467 5.24314 14.7097 4.83796 14.3192C4.58717 14.0771 4.33835 13.8325 4.10324 13.575C3.94629 13.4034 3.80621 13.213 3.74401 12.9811C3.70507 12.8371 3.6668 12.6928 3.63876 12.5466C3.59603 12.324 3.55115 12.1009 3.52788 11.8757C3.49917 11.5934 3.49526 11.3095 3.47435 11.0267C3.45446 10.7372 3.3606 10.4577 3.20175 10.2149C3.06995 10.013 2.88254 9.88709 2.63566 9.87629C2.40036 9.86596 2.26113 9.979 2.21821 10.21C2.18345 10.3969 2.19339 10.5827 2.28091 10.7552C2.34973 10.8909 2.428 11.0217 2.50199 11.1543C2.52885 11.203 2.55436 11.2517 2.5827 11.2986C2.66749 11.44 2.71228 11.5912 2.70058 11.7572C2.69338 11.8597 2.73213 11.9422 2.80417 12.0143C2.84576 12.0575 2.88443 12.1034 2.91992 12.1517C3.02107 12.2834 3.1411 12.3927 3.28791 12.4717C3.29599 12.4761 3.30319 12.4821 3.31401 12.4895C3.25676 12.5456 3.18813 12.5447 3.12592 12.524C3.05778 12.5013 2.98826 12.4701 2.93306 12.4256C2.81722 12.3321 2.70818 12.2298 2.60061 12.1266C2.50618 12.0358 2.46334 11.9214 2.46296 11.7895C2.46296 11.7102 2.46431 11.6287 2.44776 11.552C2.41602 11.406 2.35236 11.2707 2.27409 11.1431C2.2041 11.0287 2.11735 10.9244 2.075 10.7935C2.0017 10.5676 2.00395 10.3404 2.05826 10.1121C2.06654 10.0773 2.05944 10.0614 2.03003 10.0424C1.67138 9.80979 1.32325 9.56234 1.03431 9.24408C0.605283 8.77154 0.288498 8.23309 0.116186 7.61548C0.0457032 7.36305 0.0136745 7.10371 0.0063731 6.84173C-0.00560118 6.4051 -0.00443297 5.96868 0.0529073 5.53498C0.116946 5.05302 0.231611 4.57914 0.395001 4.12124C0.414473 4.06653 0.432288 4.01123 0.460228 3.95573C0.465388 3.99098 0.468212 4.0269 0.476193 4.06155C0.494982 4.14352 0.517568 4.22462 0.535578 4.30678C0.541506 4.33116 0.540969 4.35667 0.534021 4.38076C0.367993 4.86113 0.267211 5.36161 0.234371 5.8688C0.219962 6.08717 0.215583 6.3061 0.207211 6.52484C0.196598 6.80123 0.25316 7.06924 0.301448 7.3392C0.393348 7.85245 0.598273 8.3171 0.881178 8.7508C1.0162 8.95777 1.189 9.13106 1.37534 9.29159C1.45886 9.36363 1.54083 9.43703 1.62728 9.50576C1.76114 9.61286 1.91203 9.68557 2.0822 9.71479C2.25568 9.74399 2.39101 9.67846 2.47085 9.52563C2.55611 9.36226 2.53733 9.20116 2.41467 9.07782C2.3067 8.96935 2.18939 8.87248 2.04999 8.80522C1.96674 8.76512 1.88585 8.72003 1.80154 8.68266C1.67604 8.62555 1.55801 8.55326 1.4501 8.46742C1.25121 8.31291 1.13858 8.10722 1.08513 7.86538C1.07024 7.79803 1.08961 7.74964 1.13001 7.73493C1.167 7.72141 1.22648 7.75635 1.25754 7.80406C1.31595 7.89361 1.37212 7.98494 1.43754 8.06915C1.57131 8.24136 1.75939 8.32527 1.96549 8.37503C2.11375 8.41084 2.26485 8.40774 2.41564 8.40423C2.66321 8.39791 2.90717 8.36762 3.13994 8.27767C3.24255 8.23805 3.35013 8.20349 3.44173 8.14518C3.57527 8.05993 3.70172 7.96404 3.81984 7.85847C3.92216 7.76736 3.9723 7.63826 4.0123 7.508C4.0199 7.48146 4.02344 7.45394 4.02282 7.42633C4.02194 7.28672 3.89315 7.20165 3.76485 7.25645C3.73218 7.27082 3.70124 7.28885 3.67265 7.31019C3.4464 7.47569 3.18882 7.56564 2.91641 7.61403C2.64781 7.66173 2.37728 7.67438 2.10946 7.60868C2.02526 7.58803 1.94543 7.5489 1.86385 7.51764C1.73641 7.46897 1.66184 7.2691 1.78947 7.1332C1.89461 7.02134 2.00909 6.91766 2.12358 6.81506C2.26348 6.68947 2.41311 6.5745 2.54843 6.44444C2.67344 6.32431 2.77 6.18091 2.81352 6.00889C2.87963 5.74778 2.81528 5.50626 2.69193 5.27778C2.57063 5.05309 2.39987 4.86763 2.19465 4.71809C1.98242 4.5635 1.76406 4.41709 1.54629 4.27028C1.31615 4.1152 1.10217 3.94171 0.934332 3.71928C0.75238 3.47813 0.732618 3.207 0.812058 2.92438C0.824518 2.88009 0.855283 2.84095 0.877479 2.79948L0.891204 2.80445L0.902693 3.01784L0.922746 3.02942C0.927449 3.01786 0.933016 3.00668 0.939393 2.99593C1.13001 2.72054 1.35392 2.4717 1.58299 2.22882C1.72386 2.07937 1.88478 1.94852 2.03995 1.81312C2.46519 1.4424 2.91447 1.1043 3.41263 0.836967C3.83727 0.609066 4.27594 0.413001 4.74128 0.282061C4.75511 0.278071 4.76902 0.274274 4.78995 0.268531C4.76844 0.401903 4.71499 0.511909 4.61569 0.598553C4.47171 0.723456 4.29979 0.800558 4.12942 0.880874C3.68793 1.08814 3.24353 1.28975 2.80651 1.50587C2.51698 1.64879 2.25656 1.83755 2.04201 2.08288C1.83651 2.31608 1.68275 2.59016 1.59087 2.8871C1.57929 2.92457 1.5861 2.94629 1.61852 2.9677C1.71315 3.02992 1.81186 3.03693 1.91573 2.99691C1.99819 2.96511 2.07089 2.91229 2.12661 2.84369C2.21928 2.73105 2.30807 2.61529 2.39773 2.50014C2.53401 2.3249 2.68258 2.16291 2.88605 2.06204C2.89909 2.05552 2.91233 2.04949 2.92567 2.04364C2.9282 2.04248 2.93161 2.04364 2.93881 2.04364C2.9371 2.04943 2.93485 2.05503 2.93209 2.06038C2.82004 2.22375 2.78267 2.41028 2.76727 2.60255C2.76386 2.64508 2.7478 2.66533 2.71256 2.68812C2.63738 2.73511 2.56687 2.78919 2.50199 2.84962C2.47142 2.87882 2.45429 2.93042 2.44719 2.97443C2.43812 3.03051 2.46869 3.06691 2.52575 3.07023C2.60139 3.0747 2.67761 3.06817 2.75365 3.06604C2.76796 3.06604 2.78217 3.0639 2.80076 3.06243C2.82023 3.23952 2.88467 3.39907 2.97211 3.55892C2.75716 3.5192 2.5895 3.58677 2.45477 3.7584C2.47191 3.76522 2.48165 3.76882 2.49119 3.7729C2.64189 3.83618 2.79228 3.90024 2.94338 3.96255C3.06021 4.01054 3.17558 4.06331 3.2957 4.10108C3.44493 4.148 3.60011 4.13905 3.75412 4.12152C3.92797 4.10278 4.09949 4.0666 4.26611 4.01357C4.5201 3.93129 4.74391 3.80387 4.90278 3.58151C5.03304 3.39946 5.09682 3.19445 5.10002 2.97208C5.10089 2.91008 5.08678 2.84611 5.06935 2.78605C5.0454 2.70339 4.98826 2.64362 4.90474 2.62055C4.75267 2.57851 4.60761 2.60011 4.46508 2.68267C4.47524 2.70027 4.48636 2.7173 4.49838 2.73368C4.57189 2.82129 4.58824 2.92088 4.55281 3.02573C4.46082 3.29764 4.27594 3.47306 3.99643 3.54627C3.87572 3.57781 3.75521 3.61102 3.62865 3.60467C3.61181 3.6038 3.58746 3.59603 3.57998 3.58355C3.47814 3.40959 3.42596 3.21799 3.38059 3.02028C3.4757 3.00412 3.56555 2.9865 3.65669 2.97365C4.07053 2.91524 4.34709 2.6739 4.52983 2.31223C4.55904 2.2548 4.57043 2.18657 4.58045 2.12182C4.58795 2.07265 4.57237 2.02379 4.52398 1.99603C4.4756 1.9683 4.43131 1.98542 4.38818 2.01434C4.07238 2.22628 3.72502 2.36647 3.35976 2.46547C3.35169 2.46669 3.34357 2.46739 3.33542 2.46762C3.34058 2.41047 3.34174 2.35479 3.35119 2.30056C3.36998 2.19211 3.39091 2.08395 3.41651 1.97697C3.42512 1.94664 3.44351 1.92003 3.46878 1.90122C3.61053 1.7988 3.77555 1.74935 3.94241 1.70846C4.17839 1.65073 4.41476 1.59446 4.63243 1.48222C4.96284 1.31175 5.11998 1.03265 5.12768 0.667965C5.13059 0.526221 5.09194 0.388955 5.03344 0.259086C5.02759 0.246138 5.02165 0.233287 5.01298 0.214208C5.10568 0.197366 5.19425 0.18101 5.28285 0.165531C5.48729 0.129316 5.68998 0.0846319 5.89538 0.0595152C6.30826 0.00898946 6.72415 -0.0123306 7.13887 0.0194062C7.75062 0.066135 8.34524 0.205445 8.92945 0.390317C9.08824 0.440647 9.24653 0.492341 9.40483 0.544327C9.42707 0.551972 9.44671 0.56574 9.46148 0.584047C9.44205 0.585647 9.42248 0.585483 9.40307 0.583561C9.16884 0.53946 8.93579 0.486209 8.70048 0.451648C8.38662 0.405699 8.09019 0.460702 7.82558 0.646936C7.75003 0.700092 7.69269 0.765511 7.68023 0.861112C7.67128 0.930425 7.69825 0.968198 7.76902 0.968198C7.86773 0.968198 7.96645 0.959241 8.06516 0.955153C8.19496 0.949701 8.32454 0.944866 8.4539 0.940647C8.47112 0.940064 8.48855 0.945028 8.51591 0.948825C8.50518 0.964176 8.4935 0.978841 8.48095 0.992731C8.39576 1.07311 8.32694 1.16921 8.27827 1.27573C8.26484 1.30494 8.26356 1.34437 8.26853 1.37756C8.27741 1.43361 8.28979 1.48905 8.30562 1.54355C8.31341 1.57324 8.30922 1.58745 8.27505 1.59291C8.17843 1.60728 8.08684 1.64526 8.00841 1.7035C7.98502 1.7208 7.96452 1.7417 7.94767 1.76541C7.91271 1.81604 7.93258 1.87717 7.99136 1.89353C8.0367 1.90541 8.08318 1.91227 8.13001 1.91397C8.19308 1.91709 8.25657 1.91397 8.31974 1.91397C8.36656 1.91397 8.40045 1.93003 8.41125 1.98144C8.43257 2.08278 8.4571 2.18344 8.47794 2.28488C8.48301 2.30932 8.47872 2.3357 8.47872 2.36325C8.39256 2.3502 8.31215 2.33405 8.23095 2.32625C8.06303 2.30941 7.89821 2.32509 7.75199 2.41601C7.69568 2.45057 7.64813 2.49768 7.61306 2.55367C7.54492 2.66806 7.59992 2.78614 7.72989 2.81487C7.80076 2.83045 7.87513 2.82958 7.94679 2.84222C8.20127 2.8871 8.44055 2.97677 8.66914 3.09583C8.92362 3.22832 9.17216 3.37416 9.43365 3.49106C9.63214 3.57985 9.84534 3.63759 10.0548 3.6996C10.2203 3.74827 10.3891 3.72813 10.5553 3.68986C10.7879 3.63691 10.9987 3.5341 11.1913 3.39626C11.4549 3.20797 11.5939 2.9538 11.5955 2.62327C11.5963 2.45505 11.5469 2.31088 11.4436 2.18363C11.4076 2.13976 11.3656 2.1013 11.3187 2.06945C11.2868 2.04764 11.2435 2.04267 11.2138 2.03293C11.1815 2.15199 11.1603 2.26015 11.1231 2.36256C10.971 2.78176 10.5474 2.96616 10.2408 2.96031C10.0272 2.95603 9.82062 2.90063 9.62445 2.81321C9.44232 2.73202 9.26123 2.6483 9.07927 2.5669C9.02612 2.54315 8.97063 2.52465 8.9173 2.5013C8.9055 2.49614 8.88983 2.48046 8.89013 2.47015C8.89461 2.31614 8.90152 2.16232 8.90804 2.00849C8.90804 2.00723 8.90979 2.00598 8.9169 1.99672C8.95282 2.00276 8.9942 2.00645 9.03373 2.01697C9.20896 2.06135 9.3837 2.11189 9.5604 2.1518C9.76688 2.19853 9.9612 2.16153 10.1316 2.03324C10.2463 1.94689 10.3319 1.83852 10.3313 1.68393C10.3313 1.62123 10.3009 1.59631 10.2418 1.61257C10.0406 1.66728 9.83687 1.66125 9.6338 1.63399C9.43315 1.60751 9.23388 1.57071 9.03382 1.53936C8.99721 1.53362 8.95983 1.53284 8.9132 1.52904V1.01648C9.01348 1.04316 9.11695 1.07567 9.22258 1.09768C9.37299 1.12893 9.52438 1.15881 9.67643 1.1776C9.84681 1.19863 10.0056 1.13701 10.1645 1.08599C10.2044 1.07314 10.2423 1.05455 10.2824 1.0418C10.2995 1.03634 10.3191 1.03887 10.3375 1.0378C10.3373 1.05733 10.3361 1.07683 10.3339 1.09622C10.3321 1.10683 10.3241 1.11646 10.3167 1.13146C10.3297 1.14178 10.3431 1.15248 10.3566 1.1631C10.6376 1.38282 10.9228 1.59738 11.1983 1.82363C11.4936 2.06604 11.7211 2.37045 11.9213 2.69172C12.299 3.29832 12.601 3.93987 12.7452 4.64528C12.7887 4.8577 12.8098 5.07479 12.8408 5.28984C12.8418 5.3053 12.8418 5.32081 12.8408 5.33628C12.718 5.36744 12.604 5.42621 12.5073 5.5081C12.4602 5.54994 12.4157 5.59464 12.3742 5.64196C12.2461 5.78312 12.2371 5.95203 12.2712 6.12688C12.2913 6.22988 12.3215 6.33132 12.349 6.43257C12.3917 6.59106 12.3595 6.69103 12.2288 6.79091C12.1992 6.8134 12.1674 6.83297 12.134 6.84933C12.0999 6.86617 12.0941 6.89324 12.1167 6.91475C12.1434 6.94166 12.1764 6.96142 12.2128 6.97218C12.3049 6.99449 12.3965 6.97578 12.486 6.94949C12.6839 6.89109 12.8365 6.77807 12.927 6.58822C12.9441 6.55509 12.9648 6.52391 12.9886 6.49526C12.9962 6.48553 13.0138 6.48328 13.0267 6.47773L13.0264 6.54608ZM8.67284 6.733C8.68257 6.72715 8.69678 6.71966 8.70973 6.71031C8.82228 6.62834 8.94337 6.55551 9.04559 6.46225C9.72929 5.8392 9.5677 4.80572 8.72861 4.41669C8.64489 4.37775 8.55591 4.34952 8.47394 4.30746C8.35595 4.2469 8.23777 4.18461 8.12844 4.11023C8.0752 4.07401 8.03236 4.01376 8.00188 3.95554C7.96889 3.89285 7.99712 3.8466 8.06469 3.82713C8.09896 3.8178 8.13402 3.81165 8.16944 3.80873C8.31029 3.795 8.4206 3.86656 8.53216 3.93773C8.58365 3.97078 8.63851 3.99827 8.69581 4.0197C8.72267 4.03012 8.75202 4.03235 8.78014 4.02614C8.80828 4.01991 8.83396 4.00551 8.85392 3.98475C8.93082 3.9096 8.97833 3.81749 8.98494 3.71021C8.9978 3.50207 8.89354 3.35244 8.72745 3.24497C8.52301 3.11276 8.29617 3.08697 8.05865 3.12532C7.88457 3.15345 7.72921 3.21811 7.61861 3.35955C7.55571 3.43984 7.50102 3.52623 7.45535 3.61744C7.3803 3.76814 7.37232 3.92964 7.41369 4.09232C7.46646 4.29979 7.59506 4.45584 7.75988 4.58463C7.92079 4.71051 8.10128 4.80231 8.28869 4.88174C8.37075 4.91651 8.45487 4.94756 8.53372 4.98884C8.90143 5.18082 8.98894 5.63613 8.70661 5.93976C8.4206 6.2472 8.05806 6.40306 7.63798 6.37249C7.20554 6.34096 6.86151 6.12629 6.59739 5.78575C6.49045 5.64728 6.42557 5.481 6.41048 5.30669C6.39463 5.15485 6.39791 5.00162 6.42021 4.8506C6.43755 4.73767 6.44231 4.62454 6.41495 4.5123C6.37602 4.35312 6.25706 4.25841 6.10868 4.26891C6.03671 4.27487 5.9685 4.30361 5.91398 4.35099C5.72979 4.50335 5.65464 4.70603 5.68481 4.93607C5.72375 5.2328 5.80534 5.52018 5.94367 5.78838C6.06828 6.03002 6.21471 6.25421 6.45126 6.40384C6.48826 6.42731 6.52418 6.45251 6.5603 6.47705C6.57004 6.48368 6.57861 6.49175 6.58775 6.49915C6.56482 6.50393 6.54101 6.50246 6.51883 6.49486C6.44804 6.47141 6.37865 6.44346 6.30719 6.42272C6.17497 6.38378 6.04258 6.35302 5.90152 6.36763C5.61073 6.3978 5.34417 6.48621 5.11648 6.67488C5.04472 6.73425 4.97561 6.79666 4.90074 6.8616L4.99517 6.87882L4.5939 7.1445L4.60245 7.15861C4.61253 7.15423 4.62304 7.15098 4.6338 7.14888C4.65912 7.14654 4.70128 7.1369 4.70701 7.14703C4.72697 7.18218 4.68802 7.19736 4.66604 7.21098C4.55124 7.28205 4.45994 7.37823 4.37184 7.47832C4.36498 7.48706 4.35873 7.49626 4.35313 7.50587C4.38683 7.48805 4.41156 7.46245 4.44076 7.44298C4.46023 7.43013 4.48486 7.42614 4.50714 7.41814C4.50471 7.44045 4.50267 7.46274 4.49956 7.48493C4.49766 7.49116 4.49505 7.49714 4.49177 7.50276C4.41885 7.68101 4.33601 7.85605 4.27554 8.03818C4.20662 8.24536 4.15629 8.45885 4.10031 8.6702C4.08084 8.74213 4.06916 8.81623 4.05213 8.8978C4.07345 8.88243 4.08659 8.87336 4.09934 8.86363C4.22716 8.76628 4.35654 8.67127 4.48183 8.5708C4.54999 8.51609 4.62504 8.49456 4.71042 8.49184C4.87085 8.48679 5.03169 8.48007 5.19144 8.46906C5.2443 8.46546 5.30758 8.48142 5.34339 8.41913C5.34614 8.41435 5.3584 8.41484 5.36618 8.41338C5.39957 8.40696 5.43277 8.40004 5.46626 8.39391C5.74851 8.34588 6.03084 8.29788 6.31321 8.24993C6.33161 8.24671 6.34954 8.2402 6.36588 8.23629C6.37124 8.12687 6.39831 8.10975 6.50081 8.14509C6.52291 8.15276 6.54403 8.16318 6.57023 8.17429C6.56916 8.16392 6.56916 8.15349 6.57023 8.14312C6.57501 8.12463 6.58143 8.10662 6.58716 8.08841C6.60227 8.09874 6.62046 8.10634 6.63166 8.11986C6.6597 8.15404 6.68462 8.19075 6.70778 8.22237C6.71363 8.20349 6.71976 8.18343 6.7258 8.16396H6.74118C6.7591 8.19035 6.77817 8.21614 6.79482 8.2434C6.85206 8.33716 6.86959 8.44336 6.88361 8.54929C6.89178 8.61071 6.90833 8.6518 6.98019 8.65121C7.00286 8.65121 7.02564 8.66688 7.04833 8.67555C7.14053 8.71089 7.23008 8.75762 7.32538 8.77912C7.45905 8.80911 7.5966 8.82372 7.73319 8.83861C7.82504 8.84799 7.91738 8.85183 8.00967 8.8501C8.08454 8.84903 8.08882 8.84037 8.09496 8.76657C8.09652 8.74876 8.09943 8.73114 8.1008 8.71333C8.11132 8.57869 8.19007 8.48045 8.27924 8.37375C8.28004 8.39299 8.28189 8.41218 8.2848 8.43119C8.28871 8.44403 8.29366 8.45654 8.29958 8.46858C8.30991 8.46254 8.32014 8.45631 8.33065 8.45056C8.36064 8.43422 8.39081 8.41816 8.43024 8.39694C8.43306 8.4867 8.46489 8.53857 8.549 8.53954C8.64986 8.54063 8.74147 8.57371 8.83424 8.61061C9.09581 8.71477 9.35884 8.81537 9.62338 8.91241C9.68519 8.93499 9.75461 8.93695 9.82246 8.94872C9.82246 8.92137 9.82538 8.90618 9.82246 8.89254C9.79783 8.79217 9.76882 8.69268 9.74701 8.59173C9.68072 8.28439 9.61599 7.97734 9.48251 7.68908C9.37153 7.44921 9.22687 7.23357 9.03752 7.05045C8.92284 6.94016 8.79687 6.84047 8.67284 6.733ZM5.40075 13.6478C5.43189 13.4966 5.47074 13.3508 5.49049 13.2023C5.52099 12.9684 5.60818 12.7456 5.74449 12.5531C5.86978 12.374 6.03888 12.2439 6.21869 12.1262C6.37865 12.0214 6.5419 11.9218 6.70233 11.8178C6.83356 11.7327 6.97064 11.6608 7.12028 11.6133C7.21333 11.5841 7.30525 11.5665 7.39607 11.6203C7.41358 11.6287 7.43242 11.6342 7.45175 11.6363C7.59678 11.6632 7.74429 11.6741 7.89168 11.6691C7.94494 11.668 7.99721 11.6837 8.04103 11.714C8.12513 11.7765 8.20925 11.8444 8.27467 11.9251C8.45904 12.1512 8.64148 12.3797 8.8107 12.6173C8.95536 12.8205 9.05095 13.0457 9.03645 13.3063C9.02816 13.4551 9.03508 13.6048 9.03517 13.7541V13.978C9.15315 13.8786 9.25607 13.7627 9.34076 13.6338C9.61004 13.2323 9.75189 12.7902 9.75705 12.3046C9.75899 12.1264 9.77097 11.9481 9.78256 11.7702C9.79229 11.615 9.8106 11.4603 9.82149 11.305C9.83123 11.1677 9.83561 11.0298 9.84271 10.8922C9.84612 10.8262 9.8505 10.7604 9.8547 10.6902C9.83523 10.694 9.82315 10.697 9.8106 10.6989C9.67965 10.7196 9.5493 10.7495 9.41759 10.7588C9.20487 10.7737 9.01142 10.6906 8.81672 10.6185C8.60927 10.5411 8.44893 10.4092 8.31896 10.2304C8.16849 10.0227 8.05825 9.78876 7.99399 9.54053C7.96801 9.4421 7.94601 9.34251 7.92351 9.2432C7.90667 9.16864 7.87728 9.10868 7.78917 9.10058C7.73446 9.09553 7.68023 9.08111 7.62543 9.07926C7.57228 9.07713 7.51736 9.07927 7.48913 9.1406C7.43072 9.26881 7.36959 9.39596 7.31107 9.52416C7.29871 9.55133 7.29843 9.58501 7.28284 9.60945C7.21752 9.71207 7.14967 9.81301 7.08075 9.91319C6.88749 10.1936 6.62581 10.3688 6.2922 10.4486C6.01143 10.5156 5.7332 10.5303 5.44923 10.4798C5.26154 10.4465 5.10489 10.3576 4.98768 10.2133C4.87047 10.069 4.7773 9.90521 4.73301 9.72005C4.71353 9.63962 4.69406 9.55921 4.68063 9.47783C4.6672 9.39644 4.62397 9.33569 4.55271 9.30601C4.48145 9.27631 4.44952 9.23435 4.45594 9.15998C4.45594 9.15832 4.45184 9.15628 4.44689 9.15209C4.43306 9.16114 4.41769 9.17049 4.40376 9.18051C4.26912 9.27368 4.13507 9.36792 3.99937 9.45953C3.97016 9.479 3.95652 9.49925 3.95993 9.5343C3.98056 9.74847 3.91671 9.95134 3.86716 10.1556C3.82645 10.323 3.79647 10.4907 3.80942 10.6647C3.83503 11.0076 3.85733 11.3508 3.87865 11.6939C3.89286 11.9236 3.90454 12.1529 3.94932 12.3799C3.98613 12.5661 4.0824 12.7121 4.22036 12.8338C4.31263 12.9153 4.41321 12.9874 4.50724 13.0675C4.7674 13.2855 5.0519 13.4727 5.35509 13.6254C5.3688 13.6327 5.38332 13.6393 5.40075 13.6478ZM5.81751 2.39742C5.82812 2.41796 5.84447 2.43743 5.84847 2.45914C5.88108 2.63535 5.98173 2.76833 6.1083 2.88817C6.21305 2.98738 6.31274 3.09183 6.41301 3.1958C6.50906 3.29632 6.57143 3.42426 6.59145 3.56185C6.62456 3.77086 6.62164 3.98124 6.60684 4.1924C6.59486 4.36501 6.57501 4.5416 6.59711 4.71129C6.64987 5.10508 6.84358 5.42857 7.15609 5.67564C7.36775 5.8429 7.61053 5.92245 7.88204 5.9018C8.05221 5.88884 8.18851 5.77807 8.22278 5.62922C8.25607 5.48563 8.18734 5.35167 8.03217 5.25928C8.00432 5.24273 7.97561 5.22755 7.94639 5.21343C7.90404 5.19309 7.86082 5.17447 7.81809 5.15501C7.58521 5.04793 7.42468 4.86296 7.30504 4.64625C7.22648 4.50401 7.20428 4.33851 7.19464 4.17604C7.18141 3.95116 7.17518 3.72579 7.16544 3.50061C7.15239 3.20271 7.03634 2.9538 6.80417 2.76445C6.72024 2.69629 6.62543 2.64099 6.54005 2.57412C6.45595 2.50888 6.3756 2.43893 6.2994 2.36462C6.24848 2.31458 6.24896 2.25091 6.29599 2.19746C6.32811 2.16085 6.36804 2.12416 6.41214 2.10614C6.62766 2.01794 6.84856 1.9423 7.06216 1.84982C7.25577 1.7659 7.41505 1.63224 7.505 1.43753C7.63829 1.14918 7.60781 0.862182 7.46109 0.587358C7.35157 0.382236 7.17177 0.284008 6.94085 0.292575C6.50159 0.308833 6.11443 0.459729 5.79317 0.763467C5.6815 0.869191 5.58279 0.988447 5.47891 1.10215C5.30971 1.28712 5.11482 1.43315 4.86988 1.50431C4.8174 1.5196 4.76863 1.54744 4.71791 1.56876C4.68764 1.58142 4.67625 1.60235 4.69669 1.62902C4.72288 1.66319 4.74789 1.70467 4.78363 1.72365C4.85861 1.7646 4.93783 1.79724 5.0199 1.821C5.09983 1.8431 5.18471 1.84738 5.27478 1.86053C5.27478 1.8908 5.27419 1.92477 5.27478 1.95866C5.28226 2.30913 5.2879 2.6596 5.29813 3.01005C5.30786 3.35381 5.35528 3.69152 5.48786 4.0121C5.51105 4.06889 5.54653 4.11981 5.59174 4.16124C5.61858 4.18553 5.65083 4.20305 5.6858 4.21235C5.72078 4.22166 5.75747 4.22248 5.79282 4.21475C5.82818 4.20701 5.86117 4.19096 5.88908 4.16791C5.91697 4.14484 5.93897 4.11546 5.95322 4.08218C6.0422 3.88222 6.05466 3.67779 5.99936 3.46887C5.95215 3.29091 5.89538 3.11549 5.84612 2.93793C5.79764 2.76248 5.76532 2.58473 5.81751 2.39742ZM12.2002 7.75177C12.2002 7.72745 12.2012 7.7031 12.2002 7.67876C12.1789 7.20018 11.8838 6.79597 11.4396 6.64148C11.2301 6.56856 11.0136 6.53098 10.7918 6.51736C10.64 6.50762 10.4888 6.48893 10.3376 6.4716C10.1673 6.45213 10.0708 6.35828 10.044 6.18597C10.0322 6.11399 10.0092 6.04429 9.97589 5.97938C9.91398 5.85789 9.78509 5.83335 9.67565 5.91572C9.60576 5.96799 9.56273 6.03994 9.53293 6.12016C9.40444 6.46585 9.56993 6.86305 9.91885 7.03108C9.98368 7.06234 10.019 7.10059 10.0273 7.16854C10.0281 7.17332 10.0291 7.17806 10.0303 7.18275C10.0967 7.4674 10.106 7.75713 10.1167 8.04782C10.1227 8.21147 10.1244 8.37551 10.1373 8.53857C10.159 8.81398 10.308 8.99291 10.5688 9.08054C10.6861 9.11955 10.8099 9.13506 10.9333 9.12618C11.6307 9.08083 12.1951 8.46955 12.2002 7.75177ZM5.27935 5.01852C5.19766 5.09563 5.12747 5.17331 5.04569 5.23659C4.80437 5.424 4.5309 5.55426 4.24741 5.6629C4.19874 5.68159 4.14315 5.68374 4.09048 5.69132C4.05933 5.69589 4.03889 5.68159 4.02876 5.65004C3.99508 5.54365 3.95527 5.43899 3.92644 5.33121C3.89823 5.22995 3.88835 5.12445 3.89724 5.0197C4.06215 4.98971 4.2258 4.95845 4.38993 4.93062C4.57559 4.89917 4.75764 4.85917 4.9316 4.78225C5.12446 4.69696 5.23525 4.54948 5.28323 4.35118C5.33036 4.15648 5.29053 3.9793 5.16534 3.83317C5.05826 3.91855 4.96012 4.01248 4.84759 4.08396C4.41544 4.35848 3.94553 4.50548 3.42859 4.47033C3.2292 4.45671 3.04326 4.39976 2.88565 4.26912C2.82949 4.22248 2.77341 4.17545 2.71403 4.13282C2.57082 4.03235 2.41505 4.09836 2.38585 4.27047C2.36531 4.38943 2.402 4.49575 2.46237 4.59475C2.65473 4.91085 2.94836 5.05357 3.30747 5.08277L3.35908 5.08687C3.36043 5.09807 3.36171 5.10439 3.3618 5.11072C3.36514 5.36855 3.3976 5.62518 3.45857 5.87572C3.46734 5.91096 3.46296 5.93412 3.43823 5.96255C3.34816 6.06429 3.2922 6.1815 3.30193 6.32109C3.30778 6.40744 3.34087 6.48008 3.41379 6.52309L3.62727 6.37502C3.63261 6.3798 3.6375 6.38504 3.64189 6.3907C3.65065 6.41017 3.65941 6.42906 3.66749 6.44844C3.73885 6.62055 3.84594 6.76793 3.98056 6.89537C4.08337 6.99273 4.20049 7.06651 4.33989 7.09981C4.51377 7.14147 4.68977 6.96079 4.64169 6.78927C4.61811 6.70073 4.56816 6.62144 4.49848 6.56195C4.40289 6.48084 4.32909 6.38331 4.26611 6.27671C4.25086 6.24825 4.23714 6.21901 4.22502 6.18908C4.20634 6.1481 4.22365 6.12755 4.26455 6.1221C4.30145 6.11715 4.33844 6.11168 4.37553 6.10945C4.56566 6.09787 4.75248 6.06827 4.93345 6.00811C5.05826 5.96655 5.17898 5.91747 5.28148 5.82996C5.39616 5.73211 5.45887 5.61383 5.45077 5.4606C5.44319 5.31788 5.4021 5.18674 5.32101 5.06905C5.30884 5.05065 5.29297 5.03469 5.27935 5.01852ZM10.4752 4.91455C10.4636 4.86744 10.4548 4.83151 10.446 4.79558C10.3856 4.55162 10.3027 4.31857 10.1403 4.11986C10.028 3.98271 9.89401 3.89304 9.71645 3.87085C9.62698 3.85975 9.60341 3.8799 9.62454 3.96713C9.6595 4.11179 9.69678 4.25597 9.73368 4.40014C9.82685 4.76297 9.92411 5.12502 9.97532 5.49702C9.99254 5.62261 10.0426 5.74144 10.1204 5.84154C10.2177 5.97081 10.3507 6.0597 10.4722 6.16144C10.5136 6.19609 10.5633 6.17243 10.5722 6.11694C10.6047 5.9214 10.6063 5.72197 10.577 5.52592C10.5615 5.42556 10.5411 5.32586 10.5245 5.23456L11.4056 4.86627C11.4122 4.88418 11.4188 4.90024 11.424 4.91689C11.4644 5.04669 11.5047 5.17649 11.5448 5.30629C11.6219 5.55689 11.6698 5.81253 11.6674 6.07537C11.6667 6.14673 11.6642 6.21809 11.6635 6.28955C11.6628 6.35292 11.7079 6.38146 11.764 6.35273C11.7837 6.34163 11.8025 6.32883 11.82 6.31448C11.975 6.19659 12.0402 6.02573 12.0905 5.84777C12.1931 5.48435 12.1648 5.12161 12.0762 4.76055C12.0101 4.49136 11.8991 4.23873 11.7816 3.98903C11.7627 3.94882 11.7615 3.91689 11.7803 3.87561C11.8129 3.80502 11.84 3.732 11.8614 3.65725C11.9088 3.48777 11.9228 3.31554 11.8756 3.14343C11.8652 3.10642 11.8459 3.07249 11.8194 3.04462C11.787 3.01142 11.7647 3.02378 11.7496 3.06847C11.646 3.37397 11.4852 3.63399 11.1849 3.78526C11.0788 3.83862 11.0497 3.95408 11.1026 4.0603C11.1489 4.15288 11.1891 4.24837 11.2319 4.34261C11.2567 4.39703 11.2481 4.43801 11.1993 4.48037C11.0189 4.6373 10.8146 4.75508 10.6022 4.86071C10.5628 4.88009 10.522 4.89479 10.4752 4.91455ZM6.01707 12.5478L6.02448 12.5666C6.03675 12.569 6.04881 12.5722 6.06117 12.5736C6.14733 12.5834 6.23641 12.5834 6.31916 12.6041C6.51251 12.6528 6.70311 12.7153 6.87523 12.8177C7.00686 12.8975 7.15062 12.9554 7.30086 12.9889C7.31186 12.9914 7.32266 12.995 7.33357 12.998C7.51416 13.0476 7.69804 13.0705 7.88137 13.0257C8.00043 12.9965 8.11442 12.9471 8.23085 12.9072C8.34048 12.8695 8.45194 12.845 8.56936 12.8533C8.59018 12.8549 8.62777 12.8436 8.63039 12.8314C8.63264 12.8187 8.63228 12.8057 8.62933 12.7932C8.62636 12.7807 8.62085 12.7689 8.61315 12.7586C8.57957 12.7189 8.54172 12.683 8.50033 12.6515C8.32966 12.5226 8.15755 12.3957 7.98544 12.2687C7.90094 12.2065 7.80883 12.1919 7.70983 12.2298C7.64169 12.2563 7.57491 12.257 7.5089 12.2187C7.46576 12.1929 7.42044 12.1709 7.37348 12.153C7.34331 12.142 7.30534 12.1335 7.27614 12.1414C7.08658 12.1901 6.89791 12.2426 6.70984 12.2971C6.61345 12.3248 6.51893 12.3586 6.42343 12.3893C6.32792 12.4201 6.23134 12.4477 6.13712 12.4824C6.09496 12.4982 6.05719 12.5258 6.01707 12.5478ZM4.8804 8.7175C4.86988 8.88544 4.87339 9.04675 4.9096 9.20592C4.91242 9.21878 4.92653 9.22918 4.93539 9.24067C4.94124 9.22724 4.95117 9.214 4.95223 9.20017C4.95827 9.12104 4.95682 9.04101 4.96831 8.96274C4.98212 8.8681 4.96246 8.88193 5.0603 8.88165C5.10568 8.88165 5.15113 8.88281 5.1966 8.88378C5.64548 8.89351 6.09428 8.90325 6.54316 8.91144C6.6157 8.91279 6.68831 8.90521 6.76095 8.90171V8.88651C6.14004 8.7841 5.51173 8.76394 4.8804 8.7175ZM7.06107 8.89633L7.04814 8.91094C7.0636 8.92691 7.07637 8.94834 7.09515 8.95758C7.12992 8.97461 7.14275 8.99933 7.13877 9.03545C7.1298 9.11742 7.12805 9.20095 7.10955 9.28098C7.02282 9.66065 6.7991 9.94443 6.48378 10.1625C6.45643 10.182 6.42779 10.1988 6.39977 10.2169L6.40873 10.2326C6.52641 10.1666 6.64499 10.1019 6.76173 10.0341C6.84311 9.98601 6.91191 9.91928 6.96245 9.83939C7.00305 9.77689 7.04579 9.71576 7.0858 9.65286C7.20613 9.46652 7.27035 9.24949 7.27077 9.02768C7.27077 8.95952 7.25539 8.93198 7.1892 8.91514C7.14773 8.90462 7.1041 8.90237 7.06107 8.89633ZM8.53713 9.05503L8.53469 9.08511C8.81868 9.17049 9.11608 9.17466 9.40717 9.21692C9.70165 9.25966 9.99604 9.30298 10.2873 9.34552C10.2924 9.38983 10.2961 9.42147 10.2997 9.4532H10.3166C10.3467 9.41425 10.3495 9.36655 10.3569 9.32001C10.3638 9.27591 10.3426 9.25187 10.3008 9.24517C10.2416 9.23581 10.1822 9.22741 10.1227 9.21994C9.85917 9.18705 9.59564 9.15365 9.33191 9.12258C9.13097 9.09864 8.92975 9.07576 8.72833 9.05591C8.66504 9.04978 8.60089 9.05503 8.53713 9.05503ZM9.9793 10.5459L9.98903 10.5585C10.0055 10.5506 10.0247 10.546 10.0377 10.5344C10.079 10.4982 10.1217 10.4625 10.1574 10.4211C10.3423 10.206 10.4436 9.95018 10.5148 9.67974C10.5206 9.65802 10.543 9.6408 10.5572 9.62131C10.5811 9.58832 10.6136 9.55815 10.6265 9.52125C10.6442 9.46985 10.646 9.41318 10.6568 9.35925C10.6638 9.3246 10.6509 9.31058 10.6125 9.31243C10.6043 9.36051 10.5942 9.40977 10.5881 9.45846C10.5847 9.48698 10.572 9.49993 10.5449 9.50713C10.4887 9.52231 10.4527 9.5558 10.4476 9.6184C10.4432 9.65048 10.4365 9.68222 10.4275 9.71332C10.3555 10.0183 10.2307 10.2954 10.0004 10.5164C9.99248 10.5255 9.98541 10.5354 9.9793 10.5459ZM10.1043 11.2529C10.2878 11.0981 10.2886 10.8254 10.1169 10.6424C10.1059 10.6562 10.0938 10.6692 10.0807 10.6813C10.0364 10.7164 10.0382 10.7527 10.0603 10.8034C10.113 10.9244 10.1309 11.0517 10.1018 11.183C10.0977 11.2014 10.1029 11.222 10.1043 11.2529ZM10.1253 11.7936L10.1125 11.7963C10.1079 11.8112 10.1022 11.8255 10.099 11.8408C10.0785 11.9382 10.0571 12.0363 10.0399 12.1347C10.0367 12.1523 10.0514 12.173 10.0579 12.1924C10.0767 12.1816 10.1065 12.1752 10.1127 12.1593C10.1527 12.0632 10.1666 11.9583 10.153 11.8552C10.1501 11.8338 10.1351 11.8141 10.1253 11.7936ZM9.87222 11.8545C9.92461 11.7891 9.95619 11.7095 9.96286 11.626C9.96878 11.5651 9.94202 11.5253 9.88759 11.4862C9.88253 11.6141 9.87757 11.7343 9.87222 11.8545ZM8.50442 8.84494C8.50568 8.83774 8.50695 8.83044 8.50812 8.82322L8.35294 8.80212L8.35003 8.824L8.50442 8.84494Z"/>
  <path d="M0.799499 6.30784C0.783145 5.91647 0.840291 5.53272 0.926836 5.15255C0.958378 5.01431 1.03207 4.94743 1.14617 4.95552C1.19448 4.96021 1.24166 4.97295 1.28577 4.99318C1.49401 5.08392 1.66652 5.22061 1.79648 5.40772C1.94358 5.61945 1.93881 5.84063 1.80437 6.05023C1.72746 6.17038 1.62134 6.27219 1.52497 6.37919C1.39841 6.52006 1.2665 6.65665 1.14004 6.7978C1.0971 6.84579 1.06508 6.90343 1.02555 6.95473C0.964803 7.03339 0.881373 7.02647 0.851681 6.93254C0.824143 6.84145 0.807284 6.74744 0.801448 6.65246C0.793173 6.53845 0.799499 6.42289 0.799499 6.30784Z"/>
  <path d="M2.76699 11.4815C2.7554 11.4074 2.74177 11.3335 2.7335 11.259C2.73146 11.2405 2.74323 11.218 2.75424 11.2006C2.78423 11.1545 2.81566 11.1091 2.84915 11.0654C2.92889 10.9611 2.93853 10.862 2.87399 10.7496C2.80632 10.6318 2.73632 10.515 2.6674 10.3982C2.64656 10.3629 2.60802 10.358 2.59215 10.3906C2.55701 10.4626 2.52925 10.5387 2.54424 10.6199C2.55135 10.6579 2.57705 10.6923 2.59291 10.7288C2.59853 10.7441 2.60324 10.7598 2.60703 10.7757C2.59019 10.7766 2.56916 10.7845 2.55748 10.7772C2.47454 10.7262 2.39082 10.6758 2.37135 10.5669C2.35101 10.4531 2.35245 10.3406 2.3877 10.2305C2.42294 10.1204 2.48271 10.0886 2.59516 10.1052C2.77175 10.1315 2.91029 10.2182 3.01221 10.3632C3.1193 10.5161 3.22093 10.6723 3.26534 10.8576C3.26903 10.8732 3.27098 10.8896 3.27604 10.9049C3.28997 10.9478 3.28471 10.976 3.23088 10.9804C3.19417 10.9834 3.17771 11.0146 3.17683 11.046C3.17489 11.1166 3.17859 11.1874 3.18043 11.2581C3.18219 11.3208 3.19017 11.3839 3.18394 11.4458C3.18161 11.4706 3.15474 11.5014 3.13129 11.5145C3.03587 11.5668 2.90435 11.4831 2.9066 11.3748C2.90727 11.344 2.91146 11.3132 2.90989 11.2826C2.90911 11.2691 2.90085 11.2487 2.89043 11.2447C2.88305 11.2429 2.87534 11.2429 2.86799 11.2448C2.86061 11.2467 2.85385 11.2504 2.84827 11.2555C2.82977 11.2798 2.81575 11.3072 2.8069 11.3364C2.79434 11.383 2.78889 11.4315 2.78051 11.4792L2.76699 11.4815Z"/>
  <path d="M8.13439 10.5247C8.19123 10.6009 8.2003 10.6777 8.21695 10.7531C8.23846 10.8505 8.26562 10.9468 8.29356 11.0428C8.30903 11.0971 8.32919 11.1499 8.34787 11.2036C8.37047 11.2682 8.36024 11.3313 8.33921 11.3937C8.32393 11.4392 8.28781 11.4631 8.24547 11.4788C8.16279 11.5085 8.07351 11.5148 7.98748 11.497C7.93511 11.4872 7.88176 11.4793 7.83171 11.4621C7.76357 11.439 7.74721 11.3731 7.79424 11.3184C7.82847 11.2776 7.86652 11.2402 7.90785 11.2066C8.04297 11.0995 8.13574 10.9729 8.12816 10.7912C8.12513 10.7171 8.12709 10.6428 8.12728 10.5686C8.12879 10.5539 8.13117 10.5392 8.13439 10.5247Z"/>
  <path d="M7.14209 11.3441C7.01436 11.3483 7.01055 11.276 7.04979 11.1878C7.1046 11.0647 7.21236 11.0126 7.33211 10.9784C7.40367 10.9579 7.5571 11.0683 7.53889 11.1528C7.52643 11.2112 7.49147 11.2705 7.43181 11.285C7.33601 11.3081 7.23874 11.3248 7.14209 11.3441Z"/>
  <path d="M6.69348 11.0134C6.70026 11.0258 6.70565 11.0388 6.70954 11.0524C6.71529 11.0841 6.7187 11.1163 6.72249 11.1485C6.73817 11.2799 6.82305 11.352 6.93666 11.4016C6.95506 11.4096 6.96947 11.4271 6.99509 11.4474C6.88799 11.4864 6.80095 11.4643 6.71889 11.4182C6.65229 11.3811 6.63702 11.3193 6.64772 11.2469C6.65746 11.1846 6.66155 11.1216 6.66925 11.059C6.67216 11.0439 6.67624 11.0291 6.6814 11.0146L6.69348 11.0134Z"/>
  <path d="M6.95098 1.10972C6.94836 1.23326 6.89441 1.32876 6.76981 1.38114C6.6489 1.43215 6.53022 1.48822 6.4096 1.54069C6.26458 1.60241 6.13017 1.68658 6.01134 1.79011C5.99861 1.80264 5.98469 1.81389 5.96977 1.8237C5.94057 1.84112 5.90902 1.85612 5.87845 1.87237C5.86668 1.83645 5.84662 1.80102 5.84487 1.7647C5.83856 1.66678 5.86378 1.56942 5.91681 1.48686C6.06439 1.25964 6.25248 1.07545 6.49712 0.954345C6.58636 0.909423 6.68746 0.893593 6.78615 0.909076C6.89412 0.92582 6.95049 0.993188 6.95098 1.10972Z"/>
  <path d="M10.5138 7.1873C10.7011 7.20045 10.8858 7.20064 11.0653 7.25137C11.0918 7.25885 11.1182 7.26664 11.1448 7.27375C11.3716 7.33431 11.4923 7.48451 11.5245 7.71436C11.5659 8.01041 11.397 8.48131 10.957 8.58421C10.8784 8.60261 10.7933 8.60368 10.7122 8.59804C10.6275 8.592 10.5983 8.55248 10.592 8.4667C10.5879 8.4118 10.5885 8.3565 10.586 8.30122C10.5718 7.99366 10.5584 7.68613 10.542 7.37869C10.5386 7.3165 10.5245 7.25466 10.5138 7.1873Z"/>
  <path d="M8.44727 12.793C8.36833 12.7833 8.28899 12.7746 8.21032 12.7622C8.08105 12.7416 7.95233 12.7169 7.82297 12.6974C7.79398 12.6936 7.76451 12.6974 7.73738 12.7082C7.57754 12.773 7.43686 12.718 7.29765 12.6443C7.26698 12.628 7.23311 12.6116 7.19943 12.608C7.10294 12.5982 7.00598 12.5918 6.90902 12.5885C6.77613 12.5839 6.64305 12.5838 6.50988 12.581C6.47464 12.5802 6.43921 12.5771 6.41486 12.5335C6.43364 12.5278 6.45281 12.5234 6.4722 12.5203C6.61589 12.5084 6.75979 12.4977 6.90348 12.4859C6.95352 12.4819 7.00345 12.4761 7.0534 12.4713C7.1554 12.4595 7.25863 12.4781 7.35013 12.5247C7.3948 12.5476 7.44046 12.5685 7.48641 12.5892C7.52877 12.6086 7.5714 12.6094 7.61171 12.5837C7.66233 12.5515 7.71635 12.5545 7.77137 12.5662C7.98175 12.6116 8.19163 12.6592 8.39256 12.7387C8.41378 12.7472 8.43403 12.7582 8.45468 12.7679C8.45225 12.7765 8.44981 12.7849 8.44727 12.793Z"/>
</svg>
