<svg viewBox="0 0 16 16" xmlns="http://www.w3.org/2000/svg">
  <path d="M-0.00357926 8.50311C0.975784 8.50044 1.94586 8.69294 2.84999 9.06939C3.75412 9.44583 4.57417 9.99867 5.26224 10.6956C5.95749 11.3918 6.50826 12.2185 6.88287 13.1283C7.25749 14.0381 7.44855 15.0129 7.44508 15.9968H10.512C10.5146 13.2032 9.40883 10.5228 7.43742 8.54353C5.46601 6.56429 2.78995 5.44793 -0.00357926 5.43942V8.50311ZM-0.00357926 3.06691C3.41524 3.08137 6.68881 4.45096 9.09936 6.87537C11.5099 9.29979 12.8607 12.5812 12.8556 16H15.9321C15.9364 11.7669 14.2613 7.70499 11.2744 4.70542C8.28751 1.70585 4.2327 0.01362 -0.000364473 0L-0.00357926 3.06691ZM4.23994 13.859C4.23994 14.279 4.11547 14.6895 3.88226 15.0389C3.64905 15.3882 3.31755 15.6605 2.92964 15.8215C2.54172 15.9826 2.11479 16.025 1.70276 15.9436C1.29073 15.8621 0.912091 15.6603 0.614653 15.3638C0.317216 15.0673 0.114326 14.6892 0.0316089 14.2774C-0.0511083 13.8657 -0.009943 13.4386 0.149906 13.0502C0.309755 12.6618 0.581117 12.3295 0.929721 12.0952C1.27832 11.861 1.68853 11.7352 2.10854 11.734C2.38825 11.7327 2.66546 11.7868 2.92421 11.893C3.18295 11.9993 3.41814 12.1556 3.61623 12.3531C3.81432 12.5506 3.9714 12.7853 4.07844 13.0438C4.18548 13.3022 4.24037 13.5792 4.23994 13.859V13.859Z"/>
</svg>
